<svg version="1" xmlns="http://www.w3.org/2000/svg" width="1205.333" height="1205.333" viewBox="0 0 904.000000 904.000000"><path d="M374.5 1.1C305.7 4.2 239.1 14.1 200 27c-13.8 4.5-30.7 13-36.7 18.4-9.7 8.8-9.3 5.6-9.3 65.6 0 51.1.1 52.5 2.1 56.7 2.9 6 10.4 12.2 22 18.3l9.9 5.1v4.9c0 4.3-.2 4.8-2 4.3-1.1-.3-2.6 0-3.4.6-2.1 1.7-14 32.1-13.8 35 .1 1.3.7 2.9 1.2 3.6.7.9-.1 2.3-3.1 4.9-8.2 7.5-23.1 16.1-52.4 30.6-32.9 16.2-45.1 23.7-54.8 33.5C48.3 320 44.1 330.7 43.3 350c-.4 10.4-.1 13.8 1.5 20 1.1 4.1 1.9 7.6 1.7 7.8-.4.5-10.8-3.7-15-6.1-2.3-1.3-4.6-3.6-5.4-5.4-1.7-3.7-3.5-4.7-6.2-3.3-2.6 1.4-2.4 4 .9 11.3 6.8 14.9 17 27.7 37.7 47.2C88.9 450.2 90 451.3 90 454.6c0 9.3-25.2 18.5-65.2 23.9-5.5.7-7.2 2.4-6.3 6.3 2.3 10.7 27.6 20.3 74.8 28.2 9.8 1.6 18.3 3 18.8 3s.9-15.3.9-37.5c0-36.8 0-37.4 2.1-38.5 2.2-1.2 4.9.1 4.9 2.5s4 6.2 9.7 9.3c21.7 11.5 65.4 20.6 131.3 27.1 35 3.5 93.5 7.1 115.6 7.1 6.8 0 13.1.7 18.5 2 19.3 4.6 39.8 4.8 62.4.6 5.3-1 21.5-1.8 48-2.6 97.3-2.6 173-10.5 222-23.2 6.6-1.7 12.7-3.5 13.5-3.9.8-.5 5.1-2.2 9.6-3.9 8.6-3.2 16.4-8.9 16.4-12 0-2.6 3.6-4.5 5.6-2.9 1.2 1 1.4 7.4 1.4 39.5V518h2.5c3.5 0 34.6-4.7 47.5-7.1 38.9-7.4 60.4-16.4 62.5-26.1.9-3.9-.8-5.6-6.3-6.3-39.8-5.3-65.2-14.6-65.2-23.8 0-3.4-.3-3 32.3-34 23.8-22.7 38-42.5 39.4-55.1.9-8-4.1-10.6-7.4-3.9-2.2 4.5-9.6 8.8-21.8 12.7-8.4 2.7-24.7 6.7-25.2 6.3-.1-.2.9-3.8 2.3-8.1 6.8-21.6 2.6-44.4-10.9-59.2-11.7-12.9-27.8-22.3-61.9-36.3-31.1-12.7-42.6-19-52.9-28.8l-5.8-5.5 2-3.1c1-1.8 1.9-4.1 1.8-5.2-.1-3.8-11.4-32.8-13.1-33.9-1.3-.8-2.3-.8-3.8.2-1.9 1.2-2 1-2-6.5 0-4.3.4-8.3.8-8.8.4-.6 3-2.5 5.9-4.3 5.8-3.7 12.9-11 14.3-14.7.6-1.5 1-24.3 1-55.6.1-48.4-.1-53.3-1.7-56.6C695.6 27.5 608.8 6.7 486 1c-24.7-1.1-85.1-1.1-111.5.1zM511 10c97.7 7.4 163.4 22.2 185 41.7 6.2 5.6 7.8 9.9 5.4 14.8-9.3 19.6-74.6 38-163.9 46-59.3 5.3-136.2 5.9-193.5 1.4-85.8-6.6-151.5-21.5-174.1-39.4-17.4-13.8-6-27.1 34.8-40.4 36.2-11.9 89.1-20.3 151.8-24.1 9.9-.6 20.5-1.2 23.5-1.4 12-.8 117.4.3 131 1.4zM173 85.9c40 24.4 160 41.1 279 38.7 118.6-2.3 211.8-18.4 245.3-42.2 2.6-1.9 4.9-3.4 5.2-3.4.3 0 .5 18.2.5 40.5 0 32-.3 41.3-1.4 43.8-6 14.4-44.5 28.9-102.1 38.6-80.6 13.5-192.9 16-285.5 6.6-78-8.1-137.7-24.9-149.5-42.3l-2.5-3.7V78.8l2.3 1.6c1.2.9 5.1 3.4 8.7 5.5zm507.1 114l.3 10.4-5 1.9c-6.7 2.7-22.6 6.9-23.3 6.2-.3-.3-.8-4.8-.9-9.9l-.4-9.3 8.4-2.6c4.5-1.4 11-3.6 14.3-4.9 3.3-1.3 6.1-2.4 6.2-2.3.1.1.3 4.8.4 10.5zM210 198.1c5.3 1.5 15 3.9 21.5 5.4 6.6 1.5 12.1 2.7 12.1 2.8.3.4-1.7 15.1-2.1 15.5-.8.8-26.3-5-35.5-8.1l-9.5-3.2-.3-8.3c-.3-8.3-.3-8.4 2-7.6 1.3.4 6.6 1.9 11.8 3.5zm433.3 13l.6 9.6-13.2 2.2c-7.3 1.1-18.8 2.8-25.7 3.6-6.9.8-14 1.7-15.9 2-3.3.4-3.3.4-2.6-3.1.3-1.9 1.5-5.9 2.6-8.8l2.1-5.3 15.6-2.7c8.6-1.5 20.2-3.7 25.7-5 5.5-1.2 10-2.2 10.1-2.2.1.1.4 4.4.7 9.7zm-375-.6c31.4 4.9 71 8.7 105 10.1l16.9.7-.7 6.6c-.4 3.6-.8 6.7-.8 6.7-.5.4-45.4-1.8-64.2-3.1-22.4-1.6-51.2-4.6-66.5-6.8-6.3-.9-8.4-1.6-8.2-2.6.2-.8.6-4.3.9-7.8.3-3.4.9-6.3 1.3-6.3.3 0 7.7 1.1 16.3 2.5zm311 10.7c-1.3 4.5-2.4 8.3-2.6 8.4-.5.5-48.4 3.5-69.7 4.4-12.9.5-43 1-66.7 1H397v-2.8c0-1.5.3-4.3.6-6.3l.6-3.6 45.7-.6c52.4-.7 96.9-3.4 125.8-7.6 3.2-.5 7.2-.9 8.9-1l3.1-.1-2.4 8.2zM185 249.4c3.6 1.4 11.6 3.9 17.8 5.5 6.2 1.5 11.4 3 11.7 3.2.2.3-3.1 2.6-7.3 5.1-18.9 11.4-41.6 31.6-51.8 46.4l-5 7.1-3.4-2.9c-5.4-4.5-20.6-11.5-30-13.8-4.7-1.1-13-2.3-18.5-2.7l-9.9-.6 30.4-15.1c31.4-15.6 43.8-22.9 52.5-30.9 2.8-2.5 5.5-4.5 6-4.3.6.2 3.9 1.6 7.5 3zm516.7 3.1c11.4 11.3 25.2 19 58.2 32.5 24.8 10.1 24.5 9.9 13.8 10-10.5 0-20.6 1.9-34.6 6.6l-10.5 3.5-10.5-10.6c-11.7-11.6-18.4-16.9-34.1-26.9-5.8-3.6-11.8-7.7-13.3-8.9l-2.8-2.4 8.3-2.2c4.6-1.2 10.8-3.2 13.8-4.5 3-1.3 5.6-2.4 5.8-2.5.1 0 2.8 2.4 5.9 5.4zm-40.1 8.6c1.6 1.7 10.8 8.3 20.4 14.7 15.4 10.1 19.1 13.1 30.5 24.7 19.2 19.5 28.2 33 33.7 50.5 3.4 11.1 3.2 26.5-.6 37.5-7.3 21.3-26.1 40.6-51 52.4-36.4 17.3-77.3 17.8-103.6 1.4-6.4-4.1-15-12.1-19-17.8-2.6-3.8-2.7-4.2-1.3-6.8.7-1.5 2.3-6.2 3.3-10.4 1.8-6.8 2-11.2 2-38.7 0-29.6 1.3-71.7 2.8-91.1l.7-9 17.5-1.7c17.8-1.8 50.6-6.2 57-7.8 1.9-.4 3.8-.8 4.1-.9.3-.1 1.8 1.3 3.5 3zm-415.4 1.8c30.1 4.2 51.9 6 116.8 9.7l10.4.6-3.4 2.9c-3.5 2.9-13.3 8-34.1 17.7-21.1 9.8-32.7 19.9-39.8 34.5-10.8 22.1-9.2 52 4.4 81.4l3.4 7.4-3.6 3.2c-14.9 13.3-36.6 24.8-54.3 28.8-28.7 6.6-58.8-1.5-78.6-21-16.5-16.3-24.5-35.3-24.5-58.1 0-16.5 4.1-31.1 13-46.5 11.1-19.2 31.2-38.7 54.3-52.7 4-2.5 9.6-5.8 12.3-7.6 2.8-1.7 5.9-2.9 7-2.7 1.1.2 8.6 1.3 16.7 2.4zm325.3 8.3c-.8 3.8-2.4 38.6-3.1 68.8-.6 26.6-.8 28.3-2.3 26-2.9-4.6-11.3-12.9-16-15.9-5.9-3.8-18.6-7.5-33.2-9.6-21.8-3.1-33.8-7.1-54.4-18-31.8-16.7-71.9-28.5-97.3-28.5h-9.7l7.9-4.3c4.4-2.3 10.8-6.9 14.3-10.2l6.3-6h57.2c51.8-.1 87.9-1.1 115.8-3.4 15.9-1.3 15.1-1.4 14.5 1.1zM220.4 528.8c.3.9 6 20.6 12.7 43.7 6.6 23.1 12.3 42.2 12.5 42.4.7.7.9.3 10.1-19.1l9-18.7 5.3 19.7c2.9 10.8 5.6 20.1 6 20.5.4.5 10.1-17.5 21.4-39.9 11.4-22.3 20.5-40.8 20.4-40.9-.2-.2-4.4-.6-9.5-1l-9.2-.7-8.8 17.6c-4.8 9.7-9 17.6-9.4 17.6-.3 0-3-8.5-6-19-3-10.4-5.6-19-5.9-19-.3 0-4.6 8.1-9.5 18-4.9 9.8-9.1 17.8-9.2 17.6-.2-.2-1.9-5.9-3.9-12.7-1.9-6.8-4.4-15.4-5.5-19.1l-1.9-6.6-6.8-.7c-3.7-.3-8-.8-9.5-1-2.3-.4-2.7-.2-2.3 1.3zM655.6 528.1c-3.8.5-7 1-7.1 1.2-.2.2-8.9 22-10.7 26.6-.8 2.3-1.5 1.5-9.5-10.5-4.7-7.1-8.7-13-8.8-13.2-.3-.3-18.9 1.9-19.3 2.3-.2.2 6.4 10.3 14.8 22.4l15.1 22.1 2 17.7c1.1 9.7 2.1 17.8 2.2 17.9.4.3 16.2-1.8 16.6-2.2.2-.2-.4-8.2-1.4-17.8l-1.8-17.5 10.2-24.5c5.5-13.4 10.1-24.7 10.1-25 0-.8-3.6-.6-12.4.5zM571.5 535.9l-24 1.6.2 2.5c.1 1.4 1.2 19.7 2.4 40.8 1.3 21.1 2.6 38.8 3 39.4.7 1 29.7-.2 44.7-1.8l5.2-.6v-6.2c0-3.3-.3-7.2-.7-8.5l-.6-2.3-13.1.6c-7.2.4-14.5.9-16.2 1.2l-3.1.6-.6-7.8c-.4-4.2-.6-7.9-.4-8 .2-.2 5.8-.6 12.6-1l12.3-.7-.7-8.6c-.4-4.7-.8-8.7-.9-8.9-.2-.1-5.8.1-12.4.6l-12.2.7V567c0-1.4-.3-4.8-.6-7.6l-.7-5.2 6.9-.6c3.8-.3 11.3-.9 16.7-1.2l9.7-.6v-4.3c0-6.9-1.2-13.5-2.4-13.4-.6.1-11.9.9-25.1 1.8zM321 539.6c0 2.2-.7 18.3-1.5 35.9-.8 17.6-1.5 34.8-1.5 38.2v6.3H334.7l.7-6.1c.3-3.4.6-10.3.6-15.3s.4-9.6.8-10.1c.4-.6 5.7-.9 13.5-.7l12.9.4-.7 16.9-.8 16.9h17.2l.5-4.3c.7-5.4 3.6-78 3.2-78.5-.2-.1-4.2-.6-9-.9l-8.6-.6v6.9c0 3.8-.3 11.3-.7 16.8l-.6 9.8-13.1-.7c-7.2-.4-13.1-.8-13.2-.9-.1 0 .2-7.3.6-16.1.5-8.8.7-16.1.6-16.1 0-.1-4-.5-8.8-.9l-8.8-.7v3.8zM474.3 549.1c.4 6.3.9 23.5 1.2 38.4.3 14.8.8 28.9 1.1 31.2l.5 4.3h17.2l-.7-22.6-.7-22.7 13.7 12.4c7.6 6.8 19 17 25.3 22.7 6.2 5.6 11.6 10.1 11.8 9.8.3-.3 0-15.7-.6-34.3-.6-18.6-1.1-37.5-1.1-42.1V538h-18.2l.8 22.7.7 22.6-24.4-21.9c-13.4-12.1-25-22.4-25.8-22.8-1.2-.8-1.3.9-.8 10.5zM389.7 569.2c-.4 16.6-.7 35.5-.7 42V623h16.8l.6-13.3c.3-7.2.8-26.1 1.1-42l.6-28.7h-17.8l-.6 30.2zM413 548.5v8.5h20v67.1l8.8-.3 8.7-.3.3-33.3.2-33.2h20v-17h-58v8.5zM697.7 633.2c-.8 1.2-7.4 13.3-14.8 26.8-7.3 13.5-14.1 25.8-15 27.3l-1.7 2.9-23.3-24.6C630 652 619.4 641.4 619.2 642c-.5 1.3 10 82.3 10.7 83.2.8.9 17.1-1.2 17.1-2.2 0-.4-.9-7.5-2-15.6-1.1-8.2-2-15.2-2-15.6 0-.4 6 5.5 13.3 13.2 7.2 7.7 13.5 14 13.8 14 .3 0 4.6-7.4 9.5-16.5 4.9-9 9.1-16.1 9.5-15.7.3.4 1.4 7.4 2.4 15.6l1.8 14.8 8.1-.7c4.5-.3 8.4-1 8.8-1.3.7-.7-9.7-83.1-10.6-83.9-.2-.3-1.1.6-1.9 1.9zM215.6 638.1c-12.2 2-25.8 12.7-31.4 24.6-2.4 5.3-2.7 6.9-2.7 17.3s.3 12 2.7 17.3c3.8 8.1 12.6 17 20.7 21 6.3 3 7.2 3.2 18.1 3.2 10.4 0 12-.3 17-2.6 10.1-4.9 10-4.7 4.6-11.7-2.5-3.4-5.1-6.4-5.6-6.7-.5-.3-2.6.3-4.7 1.3-5.4 2.8-10.3 3.4-16.1 2.1-25.9-5.5-25.7-42.2.2-48 7-1.5 15 .7 20.6 5.7 4.4 4 3.9 4.1 12.3-2.4l5.9-4.5-4.9-4.9c-5.6-5.7-14.3-10.2-22.7-11.7-6.6-1.2-7-1.2-14 0z"/><path d="M280.3 645.4c-10.4 3.4-21.3 13.1-26.1 23.3-2.4 5.2-2.7 6.9-2.7 17.3 0 10.9.2 11.9 3.2 18.2 4.1 8.8 11.3 16 20.1 20.1 6.3 3 7.3 3.2 18.2 3.2 10.8 0 11.9-.2 18-3.1 8.7-4.1 16.2-11.6 20.3-20.1 3-6.4 3.2-7.4 3.2-18.3 0-10.4-.3-12-2.7-17.3-3.8-8-12.6-17-20.7-21-5.8-2.8-7.5-3.2-16.5-3.4-6.5-.2-11.6.2-14.3 1.1zm22.9 18.3c2.1.8 5.6 3.6 7.8 6.1 9.4 10.6 8.6 25-1.9 34.5-15.6 14.1-40.5 2.9-40.5-18.3 0-7.3 1.7-11.5 6.8-16.8 7.3-7.8 17.1-9.8 27.8-5.5zM560.7 686.8c-8.6 23.5-15.7 43-15.7 43.4 0 1 8 1 14.2.2 4.4-.6 4.4-.7 6.7-6.9l2.2-6.3 12.7-.7c7-.3 13.2-.8 13.7-.9.6-.2 2.4 2.4 4.1 5.7l3.1 6 7.7-.2c4.3-.1 8.6-.5 9.6-.9 1.5-.6-1.2-6.2-19.9-41.5-11.8-22.4-21.8-40.7-22.1-40.7-.3 0-7.6 19.2-16.3 42.8zm23.1 5.8c1.8 3.7 3 6.9 2.7 7.2-.3.3-3.2.8-6.5 1l-6 .4 2.7-7.6c1.6-4.2 3-7.6 3.3-7.6.3 0 2 3 3.8 6.6zM340.7 669c-.4 11.5-1 30.5-1.4 42.1l-.6 21.1 17.9-.4c17.1-.3 18.2-.4 23.8-3.1 16.8-7.8 24.3-20.8 23.4-40.6-.5-12.9-3.6-19.8-12.4-28-8.3-7.8-14.3-10.1-29.4-11.2-6.3-.4-13.6-.8-16.1-.8l-4.6-.1-.6 21zm34.6.8c7.4 4.2 11.2 11.2 11.1 20.7-.1 15.2-9.7 24.5-25.2 24.5h-4.5l.6-17.3c.4-9.4.7-20.5.7-24.6v-7.4l6.2.7c4 .4 7.9 1.6 11.1 3.4zM527.3 648.7c-2.7.5-2.6-1.5-1.2 29.3 1.2 26.6.7 29.8-5.7 34.7-4.4 3.3-11.7 4.2-16.2 1.9-1.7-.9-3.3-1.6-3.6-1.6-.7 0-7.6 13.6-7.6 15 0 .6 2.1 2.1 4.8 3.2 7.1 3.2 18.8 3 26.3-.4 7.8-3.6 13.3-8.9 17-16.4l3.2-6.4-.2-15.3c-.2-8.3-.6-21.7-.9-29.7l-.7-14.5-6.5-.1c-3.6-.1-7.5 0-8.7.3zM409 692v42h49.8l.7-7.9c.4-4.4.4-8.5 0-9-.4-.7-6.5-1.1-17.1-1.1H426v-15h25v-18h-12.6c-12.6 0-12.6 0-12-2.3.3-1.2.6-4.8.6-8V667h33v-17h-51v42zM139 793.2c0 23.2.4 39.8 1 42 .6 2 2.8 5.9 5 8.7 20.7 26.2 100.6 47.7 208 56 46.6 3.6 128.4 3.9 173.5.6 120.2-8.7 204.3-32.5 218.9-61.7l2.6-5.2v-39.4c0-37-.1-39.3-1.7-38.8-13.6 4.2-44.4 10.7-67.3 14.1-130.1 19.4-340.6 19.4-471-.1-22.9-3.4-52-9.5-67.2-14-1.7-.5-1.8 1.8-1.8 37.8z"/></svg>